<svg xmlns="http://www.w3.org/2000/svg" width="357" height="68" viewBox="0 0 357 68">
    <path fill="#4E2D87" fill-rule="evenodd" d="M197.035 31.169v23.78h-11.513V31.17h-12.078v19.817c0 9.814 5.095 16.608 17.929 16.608 12.079 0 17.93-6.04 17.93-16.608V31.169h-12.268zm74.171 35.481h11.701v-9.625h15.854V46.834h-15.854V41.36h16.986V31.169h-28.687V66.65zm-23.402 0h14.154V52.873h-14.154V66.65zM109.6 40.55h-.083l6.175-9.381h13.777l-12.078 17.93 12.078 17.551h-13.777l-6.163-9.308h.059l-6.164 9.308H89.647l12.268-17.552L89.647 31.17h13.777l6.176 9.382zm115.178 26.1V43.06h-10.38V31.168h33.217v11.89h-10.57V66.65h-12.267zm-160.42-11.7h12.078V42.87H64.357v12.08zm5.85 12.644c11.701 0 19.44-7.738 19.44-18.496 0-11.135-7.739-18.873-19.44-18.873-11.324 0-19.25 7.738-19.25 18.873 0 10.758 7.926 18.496 19.25 18.496zM9.059 31.17L31.33 9.465 22.27.405 0 22.488l9.06 8.682zm11.89 23.969h12.645V42.682H20.95v12.456zM9.06 66.65h36.425V31.17H9.06V66.65zm297.44 0H318.2V45.513h1.887l6.983 21.137h9.06l6.794-21.137h1.887V66.65h11.89V31.17H337.64l-5.473 19.25h-.189l-6.605-19.25h-18.873V66.65zm-163.441-11.7h12.079V42.87h-12.08v12.08zm6.04 12.644c11.323 0 19.25-7.738 19.25-18.496 0-11.135-7.927-18.873-19.25-18.873-11.702 0-19.44 7.738-19.44 18.873 0 10.758 7.738 18.496 19.44 18.496z"/>
</svg>
