<svg xmlns="http://www.w3.org/2000/svg" width="357" height="68" viewBox="0 0 357 68">
    <path fill="#FFF" fill-rule="evenodd" d="M197.035 31.259v23.78h-11.513v-23.78h-12.078v19.817c0 9.814 5.095 16.608 17.929 16.608 12.079 0 17.93-6.04 17.93-16.608V31.259h-12.268zm74.171 35.481h11.701v-9.625h15.854V46.924h-15.854V41.45h16.986V31.26h-28.687V66.74zm-23.402 0h14.154V52.963h-14.154V66.74zM109.6 40.64h-.083l6.175-9.381h13.777l-12.078 17.93 12.078 17.551h-13.777l-6.163-9.308h.059l-6.164 9.308H89.647l12.268-17.552L89.647 31.26h13.777l6.176 9.382zm115.178 26.1V43.15h-10.38v-11.89h33.217v11.89h-10.57V66.74h-12.267zM64.358 55.04h12.078V42.96H64.357V55.04zm5.85 12.645c11.701 0 19.44-7.738 19.44-18.496 0-11.135-7.739-18.873-19.44-18.873-11.324 0-19.25 7.738-19.25 18.873 0 10.758 7.926 18.496 19.25 18.496zM9.059 31.259L31.33 9.555 22.27.495 0 22.578l9.06 8.682zm11.89 23.969h12.645V42.772H20.95v12.456zM9.06 66.74h36.425V31.26H9.06V66.74zm297.44 0H318.2V45.602h1.887l6.983 21.138h9.06l6.794-21.138h1.887V66.74h11.89V31.26H337.64l-5.473 19.25h-.189l-6.605-19.25h-18.873V66.74zM143.058 55.04h12.079V42.96h-12.08V55.04zm6.04 12.645c11.323 0 19.25-7.738 19.25-18.496 0-11.135-7.927-18.873-19.25-18.873-11.702 0-19.44 7.738-19.44 18.873 0 10.758 7.738 18.496 19.44 18.496z"/>
</svg>
